name C:/MyDriveSym/Projects/mobilecap/Data\Session20210825_0002\mocap\ForceDataProcessed\walkingTS3_forces.mot
datacolumns 19
datarows 9
range 1.27450000 1.27850000
endheader 
time	R_ground_force_vx	R_ground_force_vy	R_ground_force_vz	R_ground_force_px	R_ground_force_py	R_ground_force_pz	R_ground_torque_x	R_ground_torque_y	R_ground_torque_z	L_ground_force_vx	L_ground_force_vy	L_ground_force_vz	L_ground_force_px	L_ground_force_py	L_ground_force_pz	L_ground_torque_x	L_ground_torque_y	L_ground_torque_z	
          1.27450000	          0.00000000	          0.00000000	          0.00000000	          1.17418200	          0.00000000	         -0.12016700	          0.00000000	          0.00000000	          0.00000000	         41.27885200	        618.62374400	         37.04666000	          0.92178400	          0.00600000	         -0.31066000	          0.00000000	          2.86039100	          0.00000000	
          1.27500000	          0.00000000	          0.00000000	          0.00000000	          1.17519100	          0.00000000	         -0.12019000	          0.00000000	          0.00000000	          0.00000000	         41.48133300	        618.62157100	         37.08128000	          0.92184300	          0.00600000	         -0.31067200	          0.00000000	          2.85566900	          0.00000000	
          1.27550000	          0.00000000	          0.00000000	          0.00000000	          1.17619900	          0.00000000	         -0.12021400	          0.00000000	          0.00000000	          0.00000000	         41.68423000	        618.61886500	         37.11587600	          0.92190200	          0.00600000	         -0.31068400	          0.00000000	          2.85090900	          0.00000000	
          1.27600000	          0.00000000	          0.00000000	          0.00000000	          1.17720700	          0.00000000	         -0.12023700	          0.00000000	          0.00000000	          0.00000000	         41.88754100	        618.61563400	         37.15044700	          0.92196100	          0.00600000	         -0.31069600	          0.00000000	          2.84611100	          0.00000000	
          1.27650000	          0.00000000	          0.00000000	          0.00000000	          1.17821600	          0.00000000	         -0.12026000	          0.00000000	          0.00000000	          0.00000000	         42.09126800	        618.61188300	         37.18499100	          0.92201900	          0.00600000	         -0.31070900	          0.00000000	          2.84127600	          0.00000000	
          1.27700000	          0.00000000	          0.00000000	          0.00000000	          1.17922400	          0.00000000	         -0.12028400	          0.00000000	          0.00000000	          0.00000000	         42.29540800	        618.60762000	         37.21950500	          0.92207800	          0.00600000	         -0.31072100	          0.00000000	          2.83640300	          0.00000000	
          1.27750000	          0.00000000	          0.00000000	          0.00000000	          1.18023200	          0.00000000	         -0.12030700	          0.00000000	          0.00000000	          0.00000000	         42.49996200	        618.60285100	         37.25398900	          0.92213600	          0.00600000	         -0.31073300	          0.00000000	          2.83149100	          0.00000000	
          1.27800000	          0.00000000	          0.00000000	          0.00000000	          1.18124100	          0.00000000	         -0.12033100	          0.00000000	          0.00000000	          0.00000000	         42.70492800	        618.59758100	         37.28843900	          0.92219400	          0.00600000	         -0.31074500	          0.00000000	          2.82654200	          0.00000000	
          1.27850000	          0.00000000	          0.00000000	          0.00000000	          1.18224900	          0.00000000	         -0.12035400	          0.00000000	          0.00000000	          0.00000000	         42.91030600	        618.59181600	         37.32285400	          0.92225300	          0.00600000	         -0.31075700	          0.00000000	          2.82155600	          0.00000000	
